<svg width="512" height="512" viewBox="0 0 512 512" fill="none" xmlns="http://www.w3.org/2000/svg">
  <!-- Background shape -->
  <rect width="512" height="512" rx="64" fill="#FF6B6B" />
  
  <!-- Notebook shape -->
  <rect x="102" y="76" width="308" height="360" rx="16" fill="#FFFFFF" />
  
  <!-- Spiral binding -->
  <rect x="76" y="102" width="26" height="26" rx="13" fill="#333333" />
  <rect x="76" y="152" width="26" height="26" rx="13" fill="#333333" />
  <rect x="76" y="202" width="26" height="26" rx="13" fill="#333333" />
  <rect x="76" y="252" width="26" height="26" rx="13" fill="#333333" />
  <rect x="76" y="302" width="26" height="26" rx="13" fill="#333333" />
  <rect x="76" y="352" width="26" height="26" rx="13" fill="#333333" />
  <rect x="76" y="402" width="26" height="26" rx="13" fill="#333333" />
  
  <!-- Notebook lines -->
  <line x1="152" y1="176" x2="360" y2="176" stroke="#AAAAAA" stroke-width="8" />
  <line x1="152" y1="226" x2="360" y2="226" stroke="#AAAAAA" stroke-width="8" />
  <line x1="152" y1="276" x2="360" y2="276" stroke="#AAAAAA" stroke-width="8" />
  <line x1="152" y1="326" x2="360" y2="326" stroke="#AAAAAA" stroke-width="8" />
  <line x1="152" y1="376" x2="360" y2="376" stroke="#AAAAAA" stroke-width="8" />
  
  <!-- Pen/Pencil -->
  <rect x="330" y="126" width="120" height="20" rx="10" transform="rotate(45 330 126)" fill="#4ECDC4" />
  <polygon points="280,176 296,160 320,184 304,200" fill="#FFD166" />
</svg>