<svg width="192" height="192" viewBox="0 0 192 192" fill="none" xmlns="http://www.w3.org/2000/svg">
  <!-- Background shape -->
  <rect width="192" height="192" rx="32" fill="#FF6B6B" />
  
  <!-- Notebook shape -->
  <rect x="38" y="28" width="116" height="136" rx="8" fill="#FFFFFF" />
  
  <!-- Spiral binding -->
  <rect x="28" y="38" width="10" height="10" rx="5" fill="#333333" />
  <rect x="28" y="58" width="10" height="10" rx="5" fill="#333333" />
  <rect x="28" y="78" width="10" height="10" rx="5" fill="#333333" />
  <rect x="28" y="98" width="10" height="10" rx="5" fill="#333333" />
  <rect x="28" y="118" width="10" height="10" rx="5" fill="#333333" />
  <rect x="28" y="138" width="10" height="10" rx="5" fill="#333333" />
  
  <!-- Notebook lines -->
  <line x1="58" y1="68" x2="134" y2="68" stroke="#AAAAAA" stroke-width="4" />
  <line x1="58" y1="88" x2="134" y2="88" stroke="#AAAAAA" stroke-width="4" />
  <line x1="58" y1="108" x2="134" y2="108" stroke="#AAAAAA" stroke-width="4" />
  <line x1="58" y1="128" x2="134" y2="128" stroke="#AAAAAA" stroke-width="4" />
  
  <!-- Pen/Pencil -->
  <rect x="124" y="48" width="48" height="8" rx="4" transform="rotate(45 124 48)" fill="#4ECDC4" />
  <polygon points="106,66 112,60 120,68 114,74" fill="#FFD166" />
</svg>