<svg width="100" height="100" viewBox="0 0 100 100" fill="none" xmlns="http://www.w3.org/2000/svg">
  <!-- Background shape -->
  <rect width="100" height="100" rx="15" fill="#FF6B6B" />
  
  <!-- Notebook shape -->
  <rect x="20" y="15" width="60" height="70" rx="5" fill="#FFFFFF" />
  
  <!-- Spiral binding -->
  <rect x="15" y="20" width="5" height="5" rx="2.5" fill="#333333" />
  <rect x="15" y="30" width="5" height="5" rx="2.5" fill="#333333" />
  <rect x="15" y="40" width="5" height="5" rx="2.5" fill="#333333" />
  <rect x="15" y="50" width="5" height="5" rx="2.5" fill="#333333" />
  <rect x="15" y="60" width="5" height="5" rx="2.5" fill="#333333" />
  <rect x="15" y="70" width="5" height="5" rx="2.5" fill="#333333" />
  
  <!-- Notebook lines -->
  <line x1="30" y1="35" x2="70" y2="35" stroke="#AAAAAA" stroke-width="2" />
  <line x1="30" y1="45" x2="70" y2="45" stroke="#AAAAAA" stroke-width="2" />
  <line x1="30" y1="55" x2="70" y2="55" stroke="#AAAAAA" stroke-width="2" />
  <line x1="30" y1="65" x2="70" y2="65" stroke="#AAAAAA" stroke-width="2" />
  
  <!-- Pen/Pencil -->
  <rect x="65" y="25" width="25" height="4" rx="2" transform="rotate(45 65 25)" fill="#4ECDC4" />
  <polygon points="55,35 58,32 62,36 59,39" fill="#FFD166" />
</svg>